<svg width="22" height="22" viewBox="0 0 22 22" fill="none" xmlns="http://www.w3.org/2000/svg">
<path fill-rule="evenodd" clip-rule="evenodd" d="M9.63325 0.0839865C5.6762 0.574388 2.37076 3.16642 0.86856 6.70847C0.911579 6.70282 0.955459 6.69991 1.00002 6.69991H6.378C7.00156 4.29405 8.10572 2.03699 9.63325 0.0839865ZM0.304584 8.4185C0.105471 9.24645 0 10.1109 0 10.9999C0 11.889 0.10547 12.7534 0.30458 13.5813C0.484546 13.4071 0.729754 13.2999 1 13.2999H5.97599C5.8676 12.5482 5.80496 11.7868 5.78967 11.0198C5.7894 11.0066 5.7894 10.9933 5.78967 10.98C5.80496 10.213 5.8676 9.45157 5.97599 8.69991H1.00002C0.729767 8.69991 0.484552 8.5927 0.304584 8.4185ZM0.868561 15.2913C2.37076 18.8334 5.6762 21.4254 9.63325 21.9158C8.10572 19.9628 7.00156 17.7058 6.378 15.2999H1C0.955447 15.2999 0.911574 15.297 0.868561 15.2913ZM12.3667 21.9158C16.3238 21.4254 19.6292 18.8334 21.1314 15.2913C21.0884 15.297 21.0445 15.2999 21 15.2999H15.622C14.9984 17.7058 13.8943 19.9628 12.3667 21.9158ZM21.6954 13.5813C21.8945 12.7534 22 11.889 22 10.9999C22 10.1109 21.8945 9.24646 21.6954 8.41852C21.5155 8.59271 21.2702 8.69991 21 8.69991H16.024C16.1324 9.45157 16.195 10.213 16.2103 10.98C16.2106 10.9933 16.2106 11.0066 16.2103 11.0198C16.195 11.7868 16.1324 12.5482 16.024 13.2999H21C21.2702 13.2999 21.5154 13.4071 21.6954 13.5813ZM21.1314 6.70847C19.6292 3.16641 16.3238 0.574381 12.3667 0.0839844C13.8943 2.03699 14.9984 4.29405 15.622 6.69991H21C21.0446 6.69991 21.0884 6.70282 21.1314 6.70847ZM7.78968 10.9999C7.80607 10.2246 7.87665 9.45602 7.99919 8.69991H14.0008C14.1233 9.45602 14.1939 10.2246 14.2103 10.9999C14.1939 11.7753 14.1233 12.5438 14.0008 13.2999H7.99919C7.87665 12.5438 7.80607 11.7753 7.78968 10.9999ZM11 1.58901C9.85507 3.12068 8.99389 4.85451 8.45258 6.69991H13.5474C13.0061 4.85451 12.1449 3.12068 11 1.58901ZM8.45258 15.2999H13.5474C13.0061 17.1453 12.1449 18.8791 11 20.4108C9.85507 18.8791 8.99389 17.1453 8.45258 15.2999Z" fill="#9E9FEB"/>
</svg>
