<svg width="23" height="24" viewBox="0 0 23 24" fill="none" xmlns="http://www.w3.org/2000/svg">
<path fill-rule="evenodd" clip-rule="evenodd" d="M21.3021 13.8435C21.7194 14.0652 22.0413 14.4152 22.2678 14.7652C22.709 15.4885 22.6732 16.3752 22.244 17.1568L21.4094 18.5568C20.9682 19.3035 20.1456 19.7702 19.299 19.7702C18.8818 19.7702 18.4168 19.6535 18.0352 19.4202C17.7252 19.2218 17.3675 19.1518 16.986 19.1518C15.8057 19.1518 14.8161 20.1202 14.7803 21.2752C14.7803 22.6168 13.6834 23.6668 12.3123 23.6668H10.6908C9.30771 23.6668 8.21081 22.6168 8.21081 21.2752C8.18697 20.1202 7.19737 19.1518 6.01701 19.1518C5.62356 19.1518 5.26587 19.2218 4.9678 19.4202C4.58627 19.6535 4.10936 19.7702 3.70398 19.7702C2.84553 19.7702 2.02286 19.3035 1.58171 18.5568L0.759039 17.1568C0.317894 16.3985 0.294048 15.4885 0.735193 14.7652C0.925958 14.4152 1.28364 14.0652 1.68902 13.8435C2.02286 13.6802 2.23747 13.4118 2.44016 13.0968C3.0363 12.0935 2.67862 10.7752 1.66517 10.1802C0.484814 9.51516 0.103283 8.0335 0.782884 6.8785L1.58171 5.50183C2.27324 4.34683 3.75167 3.9385 4.94395 4.61516C5.98124 5.17516 7.32852 4.80183 7.93659 3.81016C8.12735 3.4835 8.23466 3.1335 8.21081 2.7835C8.18697 2.3285 8.31812 1.89683 8.54465 1.54683C8.9858 0.823496 9.78463 0.356829 10.655 0.333496H12.3361C13.2184 0.333496 14.0172 0.823496 14.4584 1.54683C14.673 1.89683 14.8161 2.3285 14.7803 2.7835C14.7564 3.1335 14.8638 3.4835 15.0545 3.81016C15.6626 4.80183 17.0099 5.17516 18.0591 4.61516C19.2394 3.9385 20.7298 4.34683 21.4094 5.50183L22.2082 6.8785C22.8997 8.0335 22.5182 9.51516 21.3259 10.1802C20.3125 10.7752 19.9548 12.0935 20.5629 13.0968C20.7536 13.4118 20.9682 13.6802 21.3021 13.8435ZM8.12735 12.0118C8.12735 13.8435 9.64155 15.3018 11.5134 15.3018C13.3853 15.3018 14.8638 13.8435 14.8638 12.0118C14.8638 10.1802 13.3853 8.71016 11.5134 8.71016C9.64155 8.71016 8.12735 10.1802 8.12735 12.0118Z" fill="#4546AB"/>
</svg>
